<svg width="64" height="64" viewBox="0 0 64 64" fill="none" xmlns="http://www.w3.org/2000/svg">
  <defs>
    <clipPath id="squircle">
      <rect width="64" height="64" rx="18" fill="white"/>
    </clipPath>
    <filter id="shadow" x="-20%" y="-20%" width="140%" height="140%">
      <feDropShadow dx="0" dy="2" stdDeviation="2" flood-opacity="0.2"/>
    </filter>
  </defs>
  
  <g clip-path="url(#squircle)">
    <!-- Map Background -->
    <rect width="64" height="64" fill="#E6E0D3"/>
    
    <!-- Green Park Areas -->
    <path d="M-10 0H30V30C30 46.5685 16.5685 60 0 60H-10V0Z" fill="#A8DAB5"/>
    <path d="M44 0H74V20H44V0Z" fill="#A8DAB5"/>
    
    <!-- Roads -->
    <path d="M28 -5L28 69" stroke="white" stroke-width="8"/>
    <path d="M-5 40L69 40" stroke="white" stroke-width="8"/>
    <path d="M28 -5L28 69" stroke="#F6F3E6" stroke-width="6"/> <!-- Inner Road -->
    <path d="M-5 40L69 40" stroke="#F6F3E6" stroke-width="6"/>
    
    <!-- Route Line -->
    <path d="M28 64V40H64" stroke="#4285F4" stroke-width="4" stroke-linecap="round"/>
    
    <!-- User Location Puck -->
    <g filter="url(#shadow)">
      <circle cx="32" cy="32" r="14" fill="#4285F4" stroke="white" stroke-width="3"/>
      <path d="M32 24L38 38L32 34L26 38L32 24Z" fill="white"/>
    </g>
  </g>
</svg>
